<?xml version='1.0' encoding='utf-8'?>
<svg xmlns="http://www.w3.org/2000/svg" viewBox="0 0 744.09 1052.4"> <defs> <filter id="c" x="-.10174" y="-.14626" width="1.2035" height="1.2925"> <feGaussianBlur stdDeviation="7.89111"/> </filter> <filter id="b" x="-.14031" y="-.10483" width="1.2806" height="1.2096"> <feGaussianBlur stdDeviation="15.34299"/> </filter> <linearGradient id="a" x1="372.81" x2="385.14" gradientUnits="userSpaceOnUse"> <stop stop-color="#fff" stop-opacity="0" offset="0"/> <stop stop-color="#b3b3b3" offset="1"/> </linearGradient> </defs> <path d="m167.78 298.08h197.58a19.784 15.512 0 0 1 19.784 15.512v300.4a19.784 15.512 0 0 1-19.784 15.512h-197.58a19.784 15.512 0 0 1-19.784-15.512v-300.4a19.784 15.512 0 0 1 19.784-15.512" fill="url(#a)" fill-rule="evenodd"/> <path d="m159.78 298.08h197.58a19.784 15.512 0 0 1 19.784 15.512v300.4a19.784 15.512 0 0 1-19.784 15.512h-197.58a19.784 15.512 0 0 1-19.784-15.512v-300.4a19.784 15.512 0 0 1 19.784-15.512" fill-opacity=".98492" fill-rule="evenodd"/> <path d="m167.78 298.08h197.58a19.784 15.512 0 0 1 19.784 15.512v300.4a19.784 15.512 0 0 1-19.784 15.512h-197.58a19.784 15.512 0 0 1-19.784-15.512v-300.4a19.784 15.512 0 0 1 19.784-15.512" fill="url(#a)" fill-rule="evenodd"/> <path transform="matrix(.42396,-.90568,.74769,.66405,0,0)" d="m-387.86 457.94h416.2v22.278h-416.2z" fill="#fff" fill-opacity=".09045" fill-rule="evenodd"/> <path transform="matrix(.36302,-.93178,.6838,.72967,0,0)" d="m-361.66 391.86h362.25v18.155h-362.25z" fill="#fff" fill-opacity=".09045" fill-rule="evenodd"/> <path transform="matrix(.42396,-.90568,.74769,.66405,0,0)" d="m-353.37 548.04h416.2v22.278h-416.2z" fill="#fff" fill-opacity=".09045" fill-rule="evenodd"/> <path transform="translate(-172.37 92.539)" d="m492.63 456.66a67.361 65.738 0 1 1-134.72 0 67.361 65.738 0 1 1 134.72 0z" fill-opacity=".98492" fill-rule="evenodd" stroke="#5c5c5c" stroke-width=".6"/> <path transform="matrix(.39007 0 0 .39007 87.018 371.07)" d="m492.63 456.66a67.361 65.738 0 1 1-134.72 0 67.361 65.738 0 1 1 134.72 0z" fill-opacity=".98492" fill-rule="evenodd" stroke="#5c5c5c"/> <text x="231.67603" y="503.25131" fill="#fefefe" font-family="Bitstream Vera Sans" font-size="14.36"><tspan x="231.67603" y="503.25131">MENU</tspan></text> <path d="m301.63 544.16v9.546l6.4055-4.773-6.4055-4.773z" fill="#fff" fill-rule="evenodd"/> <path d="m307.67 544.16v9.546l6.4055-4.773-6.4055-4.773z" fill="#fff" fill-rule="evenodd"/> <path d="m314.07 544.16v9.546" fill="#fff" fill-rule="evenodd" stroke="#fff" stroke-width=".611"/> <path d="m204.23 544.16v9.546l-6.4055-4.773 6.4055-4.773z" fill="#fff" fill-rule="evenodd"/> <path d="m198.19 544.16v9.546l-6.4055-4.773 6.4055-4.773z" fill="#fff" fill-rule="evenodd"/> <path d="m191.78 544.16v9.546" fill="#fff" fill-rule="evenodd" stroke="#fff" stroke-width=".611"/> <path d="m250.9 598.94v9.546l6.4055-4.773-6.4055-4.773z" fill="#fff" fill-rule="evenodd"/> <path d="m256.94 598.94v9.546l6.4055-4.773-6.4055-4.773z" fill="#fff" fill-rule="evenodd"/> <path d="m263.64 598.94v9.546" fill="#fff" fill-rule="evenodd" stroke="#fff" stroke-width=".611"/> <path d="m265.64 598.94v9.546" fill="#fff" fill-rule="evenodd" stroke="#fff" stroke-width=".611"/> <path d="m252.91 523.56c-2.8694 0-5.6332 0.4503-8.2188 1.2812l-16.031 34.25c3.0164 7.03 9.1574 12.448 16.719 14.656l21.625-46.188c-4.0732-2.5325-8.9096-4-14.094-4z" fill="#fff" fill-opacity=".09045" fill-rule="evenodd"/> <path transform="matrix(.36302,-.93178,.6838,.72967,0,0)" d="m-387.25 310.83h362.25v18.155h-362.25z" fill="#fff" fill-opacity=".09045" fill-rule="evenodd"/> <path d="m170.33 318.37h176.47a8.4214 9.8308 0 0 1 8.4214 9.8308v116.99a8.4214 9.8308 0 0 1-8.4214 9.8308h-176.47a8.4214 9.8308 0 0 1-8.4214-9.8308v-116.99a8.4214 9.8308 0 0 1 8.4214-9.8308" fill="#fff" fill-opacity=".98492" fill-rule="evenodd"/> <path d="m175.91 323.95h165.31a8.4214 9.8308 0 0 1 8.4214 9.8308v105.83a8.4214 9.8308 0 0 1-8.4214 9.8308h-165.31a8.4214 9.8308 0 0 1-8.4214-9.8308v-105.83a8.4214 9.8308 0 0 1 8.4214-9.8308" fill="none" filter="url(#c)" stroke="#000" stroke-width="4"/> <path d="m140.89 291.04h241.09a8.4214 9.8308 0 0 1 8.4214 9.8308v327.1a8.4214 9.8308 0 0 1-8.4214 9.8308h-241.09a8.4214 9.8308 0 0 1-8.4214-9.8308v-327.1a8.4214 9.8308 0 0 1 8.4214-9.8308" fill="none" filter="url(#b)" stroke="#000" stroke-width="4.511"/> </svg>